<svg width="70" height="70" viewBox="0 0 70 70" xmlns="http://www.w3.org/2000/svg"><title>icon/sm/varejo</title><g fill="none" fill-rule="evenodd"><path stroke="#1BB99A" stroke-width="3" stroke-linecap="round" stroke-linejoin="round" d="M61 30v33H10V30"/><path stroke="#1BB99A" stroke-width="3" stroke-linecap="round" stroke-linejoin="round" d="M14 54h22V38H14zM41 62h14V38H41zM60.609 8H9.39L4 19h62zM66 21.803c0 6.453-7.44 11.851-13.478 5.606-3.92 6.475-12.557 7.652-17.522 1.794-5.02 5.934-13.653 4.591-17.522-1.794C11.51 33.592 4 28.326 4 21.803V19h62v2.803z"/><path stroke="#1BB99A" stroke-width="3" stroke-linecap="round" stroke-linejoin="round" d="M18 27v-8.143L20 8M35 28V8M52 27v-8.143L50 8"/><path d="M49 51a1 1 0 1 0 0 2 1 1 0 0 0 0-2"/></g></svg>