<svg width="47" height="47" viewBox="0 0 47 47" xmlns="http://www.w3.org/2000/svg" xmlns:xlink="http://www.w3.org/1999/xlink"><title>Group 23</title><defs><path d="M.002 1.012v18.472c0 .51.416.924.928.924h18.577a.927.927 0 0 0 .93-.924C20.436 8.79 11.686.088.93.088a.926.926 0 0 0-.928.924zm1.857.948c8.993.466 16.225 7.658 16.695 16.6H1.859V1.96z" id="a"/><path d="M.931.256a.939.939 0 0 0-.658 1.597L13.41 15.079c.182.182.42.273.658.273a.921.921 0 0 0 .656-.273c3.685-3.709 5.714-8.64 5.714-13.887a.932.932 0 0 0-.929-.935H.931zm2.242 1.87h15.382a17.683 17.683 0 0 1-4.505 10.951L3.173 2.127z" id="c"/><path d="M.931.256a.939.939 0 0 0-.658 1.597L13.41 15.079c.182.182.42.273.658.273a.921.921 0 0 0 .656-.273c3.641-3.665 5.666-8.523 5.713-13.7v-.227a.932.932 0 0 0-.928-.895H.931zm2.242 1.87h15.382a17.683 17.683 0 0 1-4.505 10.951L3.173 2.127z" id="e"/><path d="M.011 19.721c0 8.016 4.612 14.904 12.034 17.975 2.514 1.04 5.104 1.548 7.653 1.548 5.024 0 9.88-1.97 13.642-5.731a.926.926 0 0 0 0-1.313L20.464 19.337V1.144a.927.927 0 0 0-.93-.928C8.77.216.011 8.966.011 19.72zm12.744 16.26C6.043 33.2 1.871 26.97 1.871 19.72c0-9.42 7.426-17.14 16.734-17.623V19.72c0 .246.098.482.273.656l12.475 12.464c-3.3 2.982-7.417 4.54-11.666 4.54-2.308 0-4.655-.46-6.932-1.4z" id="g"/><path d="M.012 19.51v.43c.083 7.922 4.678 14.714 12.033 17.756 2.466 1.02 5.005 1.528 7.507 1.548h.292c4.972-.038 9.771-2.008 13.496-5.731a.926.926 0 0 0 0-1.313L20.464 19.337V1.144a.927.927 0 0 0-.93-.928C8.84.216.126 8.85.012 19.51zm12.743 16.47C6.043 33.2 1.871 26.97 1.871 19.721c0-9.42 7.426-17.14 16.734-17.623V19.72c0 .246.098.482.273.656l12.475 12.464c-3.3 2.982-7.417 4.54-11.666 4.54-2.308 0-4.655-.46-6.932-1.4z" id="i"/></defs><g fill="none" fill-rule="evenodd"><path d="M27.114 3.202c8.993.465 16.225 7.658 16.695 16.6H27.114v-16.6zm-.929 18.448h18.577a.927.927 0 0 0 .93-.924c0-10.695-8.75-19.395-19.507-19.395a.925.925 0 0 0-.928.923v18.472c0 .51.416.924.928.924z" fill="#1BB99A"/><g transform="translate(25.255 1.242)"><mask id="b" fill="#fff"><use xlink:href="#a"/></mask><use stroke="#1BB99A" xlink:href="#a"/><path fill="#1BB99A" mask="url(#b)" d="M-.136 20.562h20.572V-.01H-.136z"/><path fill="#1BB99A" mask="url(#b)" d="M-1.606 22.015h23.65V-1.52h-23.65z"/></g><g transform="translate(25.255 24.263)"><mask id="d" fill="#fff"><use xlink:href="#c"/></mask><path fill="#FFF" mask="url(#d)" d="M-.136 15.576h20.572V.147H-.136z"/><mask id="f" fill="#fff"><use xlink:href="#e"/></mask><use stroke="#1BB99A" xlink:href="#e"/><path fill="#1BB99A" mask="url(#f)" d="M-1.606 16.959h23.65v-18.31h-23.65z"/><path d="M14.05 13.077L3.173 2.127h15.382a17.686 17.686 0 0 1-4.505 10.95M19.508.257H.931a.938.938 0 0 0-.658 1.597L13.41 15.078a.93.93 0 0 0 1.314 0c3.685-3.709 5.714-8.64 5.714-13.887a.932.932 0 0 0-.929-.935" stroke="#1BB99A" fill="#1BB99A" mask="url(#f)"/></g><g transform="translate(1 6.667)"><mask id="h" fill="#fff"><use xlink:href="#g"/></mask><path fill="#FFF" mask="url(#h)" d="M.012 39.244h33.75V.029H.013z"/></g><g transform="rotate(2 -173.489 51.979)"><path d="M12.755 35.98C6.043 33.2 1.871 26.97 1.871 19.722 1.87 10.3 9.297 2.58 18.605 2.098v17.624c0 .245.098.48.273.655l12.475 12.464c-5.093 4.601-12.129 5.814-18.598 3.14zm7.71-16.643V1.145a.927.927 0 0 0-.93-.93C8.768.216.01 8.966.01 19.723c0 8.015 4.612 14.904 12.034 17.974 2.514 1.039 5.104 1.548 7.653 1.548 5.024 0 9.88-1.971 13.642-5.731a.926.926 0 0 0 0-1.314L20.464 19.337z" stroke="#1BB99A" fill="#FFF"/><mask id="j" fill="#fff"><use xlink:href="#i"/></mask><use stroke="#1BB99A" xlink:href="#i"/><path fill="#1BB99A" mask="url(#j)" d="M-1.596 40.851h36.817V-1.39H-1.596z"/></g></g></svg>