<svg width="40" height="40" viewBox="0 0 40 40" xmlns="http://www.w3.org/2000/svg"><title>08/ icone/imprimecomprovante2</title><g fill="#1BB99A" stroke="#1BB99A" stroke-width="1.5" fill-rule="evenodd"><path d="M25.22 14.121h-7.458a1.05 1.05 0 0 1 0-2.1h7.457a1.05 1.05 0 0 1 0 2.1M32.676 20.365H17.762a1.05 1.05 0 0 1 0-2.1h14.914a1.05 1.05 0 0 1 0 2.1M32.676 26.609H17.762a1.05 1.05 0 0 1 0-2.1h14.914a1.05 1.05 0 0 1 0 2.1M32.676 32.851H17.762a1.05 1.05 0 0 1 0-2.1h14.914a1.05 1.05 0 0 1 0 2.1"/><path d="M36.988 36.805H13.692V9.242c-.052-1.705-.636-4.317-2.226-6.142H32.13c4.589 0 4.85 5.958 4.858 6.176v27.529zM3.165 6.775C3.627 3.26 6.401 3.106 6.735 3.1c2.633 0 3.841 1.961 4.395 3.675H3.165zM32.13 1H6.735C4.751 1 1 2.426 1 7.825c0 .582.47 1.05 1.05 1.05h9.513c.023.225.03.37.03.401v28.579c0 .58.47 1.05 1.05 1.05h25.395c.58 0 1.05-.47 1.05-1.05V9.242C38.999 6.392 37.43 1 32.13 1z"/></g></svg>