<svg xmlns="http://www.w3.org/2000/svg" width="164.227" height="49.931" viewBox="0 0 164.227 49.931">
  <g id="Camada_2" data-name="Camada 2" transform="translate(-0.109 0.003)">
    <g id="Camada_1" data-name="Camada 1" transform="translate(0.109 -0.003)">
      <path id="Caminho_2169" data-name="Caminho 2169" d="M30.948,9.777a1.3,1.3,0,0,1-.905,1.363l-.533.16c-1.145.346-2.264.714-3.345,1.113a51.153,51.153,0,0,0-4.751,1.965A42.378,42.378,0,0,0,13,19.582c-4.793,3.9-7.3,8.244-6.2,11.93a5.858,5.858,0,0,0,.533,1.22A12.031,12.031,0,0,1,3.6,27.859a2.929,2.929,0,0,1-.128-.309,11.5,11.5,0,0,1-.719-3.558c-.341-7.11,5.555-15.067,14.971-20.3a44.121,44.121,0,0,1,4.65-2.232c.431-.181.873-.352,1.321-.533.868-.314,1.736-.612,2.615-.873A1.417,1.417,0,0,1,26.575,0a1.31,1.31,0,0,1,1.337.788,1.2,1.2,0,0,1,.043.128L28.9,3.727l1.252,3.632.176.506.533,1.5a1.139,1.139,0,0,1,.048.144A2.056,2.056,0,0,1,30.948,9.777Z" transform="translate(-1.341 0.003)" fill="#6cf8fc"/>
      <path id="Caminho_2170" data-name="Caminho 2170" d="M28.2,73.956a1.182,1.182,0,0,0,.309-.783,1.235,1.235,0,0,0,0-.245L26.5,64a.1.1,0,0,0,0-.059A1.214,1.214,0,0,0,25.44,63h0l-.421.037h0A34.941,34.941,0,0,1,9.8,61.371C5,59.6,1.612,56.578.616,52.61a15.578,15.578,0,0,0-.053,7.669c2.349,9.581,13.709,15.285,26.651,14.082Z" transform="translate(-0.109 -24.589)" fill="#035a9e"/>
      <path id="Caminho_2171" data-name="Caminho 2171" d="M51.85,92.438l.4-.048h0Z" transform="translate(-24.293 -43.183)" fill="#fff"/>
      <path id="Caminho_2172" data-name="Caminho 2172" d="M51,93.012h.064a.836.836,0,0,0,.378-.069h0a1.47,1.47,0,0,0,.623-.533Z" transform="translate(-23.896 -43.192)" fill="#fff"/>
      <text id="conecta" transform="translate(36.227 34.618)" fill="#035a9e" font-size="32" font-family="Montserrat-Medium, Montserrat" font-weight="500"><tspan x="0" y="0" letter-spacing="-0.02em">c</tspan><tspan y="0">onecta</tspan></text>
    </g>
  </g>
</svg>
