<svg xmlns="http://www.w3.org/2000/svg" viewBox="0 0 555.36 240.96"><defs><style>.cls-1{fill:#32829b;}.cls-2{fill:#48b1c8;}</style></defs><g id="Camada_2" data-name="Camada 2"><g id="Camada_1-2" data-name="Camada 1"><rect class="cls-1" y="34.95" width="27.91" height="204.22" rx="13.96"/><rect class="cls-1" y="210.82" width="118.63" height="28.35" rx="14.18"/><rect class="cls-2" x="195.42" y="30.71" width="30.03" height="216.27" rx="13.96" transform="translate(72.56 -72.23) rotate(23.43)"/><rect class="cls-2" x="251.35" y="27.61" width="30.03" height="216.27" rx="13.96" transform="translate(75.94 -94.73) rotate(23.43)"/><rect class="cls-1" x="107.43" y="32.01" width="30.03" height="140.03" rx="13.96" transform="translate(-30.3 56.51) rotate(-23.21)"/><rect class="cls-1" x="527.45" y="36.73" width="27.91" height="204.22" rx="13.96"/><ellipse class="cls-1" cx="540.97" cy="15.02" rx="14.39" ry="15.02"/><path class="cls-1" d="M514.08,132.56a104.45,104.45,0,0,0-.74-12.45A102.62,102.62,0,0,0,461.56,42.4h0A98.07,98.07,0,0,0,416,30.06c-.73,0-1.47,0-2.21,0C358.32,30,313.4,75.93,313.4,132.56s44.92,102.53,100.34,102.53a99.13,99.13,0,0,0,74.5-33.85L473,183l-1-1.24a75.44,75.44,0,0,1-58.22,28c-34,0-62.74-22.94-72.22-54.5A77.22,77.22,0,0,1,338.76,142H513.65Q514.09,137.32,514.08,132.56Zm-174.9-12.45a77.53,77.53,0,0,1,10-27.57,75.28,75.28,0,0,1,58.69-36.93q2.93-.24,5.91-.24c37.57,0,68.74,28,74.56,64.74Z"/><path class="cls-1" d="M492.5,191.32c0,7.64-7,14.14-13.94,14.14s-11.62-4.89-11.62-12.14,6-15.13,13-15.13A12.86,12.86,0,0,1,492.5,191.32Z"/></g></g></svg>