<svg xmlns="http://www.w3.org/2000/svg" viewBox="0 0 988.8 429.02"><defs><style>.cls-1{fill:#32829b;}.cls-2{fill:#48b1c8;}.cls-3{fill:none;stroke:#1d1d1b;stroke-miterlimit:10;stroke-width:0.5px;}</style></defs><g id="Camada_2" data-name="Camada 2"><g id="Camada_1-2" data-name="Camada 1"><rect class="cls-1" y="62.23" width="49.69" height="363.61" rx="24.85"/><rect class="cls-1" y="375.36" width="211.22" height="50.48" rx="25.24"/><rect class="cls-2" x="347.94" y="54.68" width="53.46" height="385.07" rx="26.73" transform="translate(129.2 -128.6) rotate(23.43)"/><rect class="cls-2" x="447.53" y="49.16" width="53.46" height="385.07" rx="26.73" transform="translate(135.22 -168.66) rotate(23.43)"/><rect class="cls-1" x="191.28" y="56.99" width="53.46" height="249.33" rx="26.73" transform="translate(-53.95 100.62) rotate(-23.21)"/><rect class="cls-1" x="939.11" y="65.4" width="49.69" height="363.61" rx="24.85"/><ellipse class="cls-1" cx="963.18" cy="26.74" rx="25.62" ry="26.74"/><line class="cls-3" x1="923.46" y1="253.46" x2="922.69" y2="253.46"/><line class="cls-3" x1="922.76" y1="214.51" x2="922.14" y2="214.51"/><path class="cls-1" d="M915.31,236A186.38,186.38,0,0,0,914,213.86C906.9,154,871.47,103.08,821.8,75.5a.07.07,0,0,0,0,0,174.62,174.62,0,0,0-81.17-22c-1.3,0-2.62-.06-3.94-.06C638,53.47,558,135.2,558,236s80,182.56,178.65,182.56c52.63,0,100-23.26,132.65-60.27L842.16,325.8l-1.85-2.21a134.29,134.29,0,0,1-103.66,49.87c-60.51,0-111.7-40.84-128.58-97a137.94,137.94,0,0,1-4.92-23.61H914.54Q915.32,244.52,915.31,236ZM603.9,213.86a138.07,138.07,0,0,1,17.74-49.09C643.5,128,681.8,102.51,726.13,99q5.21-.43,10.52-.43c66.9,0,122.39,49.91,132.76,115.27Z"/><path class="cls-1" d="M876.88,340.64c0,13.6-12.45,25.18-24.82,25.18s-20.69-8.72-20.69-21.62,10.75-26.93,23.12-26.93S876.88,327.73,876.88,340.64Z"/></g></g></svg>